<?xml version="1.0" encoding="utf-8"?>
<!-- Generator: Adobe Illustrator 15.1.0, SVG Export Plug-In . SVG Version: 6.00 Build 0)  -->
<!DOCTYPE svg PUBLIC "-//W3C//DTD SVG 1.1//EN" "http://www.w3.org/Graphics/SVG/1.1/DTD/svg11.dtd">
<svg version="1.1" id="Layer_1" xmlns="http://www.w3.org/2000/svg" xmlns:xlink="http://www.w3.org/1999/xlink" x="0px" y="0px"
	 width="354.5px" height="185.5px" viewBox="0 -6 354.5 185.5" enable-background="new 0 -6 354.5 185.5" xml:space="preserve">
<g>
	<path fill="#00467F" d="M15.08,127.73c0.491-1.251,0.67-1.475,0.938-1.475c0.402,0,0.536,0.535,0.938,1.385
		c0.715,1.608,7.017,17.297,9.43,23.062c1.43,3.396,2.503,3.889,3.352,4.156c0.581,0.179,1.162,0.224,1.564,0.224
		c0.224,0,0.492,0.09,0.492,0.312s-0.447,0.312-0.894,0.312c-0.581,0-3.486,0-6.212-0.089c-0.76-0.045-1.386-0.045-1.386-0.269
		c0-0.179,0.089-0.179,0.268-0.269c0.224-0.09,0.626-0.401,0.358-1.027l-3.531-8.715c-0.089-0.18-0.134-0.225-0.358-0.225h-9.072
		c-0.179,0-0.313,0.089-0.402,0.312l-2.235,6.078c-0.357,0.938-0.581,1.877-0.581,2.548c0,0.76,0.67,1.027,1.341,1.027h0.358
		c0.312,0,0.402,0.135,0.402,0.312c0,0.224-0.223,0.312-0.581,0.312c-0.938,0-3.083-0.134-3.531-0.134
		c-0.402,0-2.369,0.134-3.978,0.134c-0.492,0-0.76-0.089-0.76-0.312c0-0.179,0.179-0.312,0.357-0.312c0.269,0,0.85-0.045,1.162-0.09
		c1.788-0.224,2.548-1.563,3.308-3.485L15.08,127.73z M19.459,143.551c0.179,0,0.179-0.09,0.134-0.27l-3.888-10.413
		c-0.224-0.581-0.447-0.581-0.67,0l-3.665,10.414c-0.044,0.181,0,0.27,0.134,0.27L19.459,143.551L19.459,143.551z"/>
	<path fill="#00467F" d="M40.868,150.523c0.089,3.129,0.447,4.067,1.52,4.336c0.715,0.179,1.609,0.224,1.966,0.224
		c0.179,0,0.313,0.135,0.313,0.312c0,0.224-0.268,0.312-0.715,0.312c-2.235,0-3.799-0.134-4.157-0.134
		c-0.357,0-2.011,0.134-3.799,0.134c-0.402,0-0.625-0.044-0.625-0.312c0-0.179,0.134-0.312,0.312-0.312
		c0.313,0,1.028-0.045,1.609-0.224c0.983-0.269,1.117-1.296,1.117-4.737v-21.766c0-1.52,0.223-1.922,0.536-1.922
		c0.447,0,1.117,0.76,1.52,1.162c0.626,0.625,6.347,6.704,12.425,12.961c3.888,4.021,8.089,8.536,9.296,9.787l-0.402-19.039
		c-0.045-2.458-0.269-3.308-1.475-3.53c-0.715-0.135-1.609-0.179-1.922-0.179c-0.268,0-0.312-0.225-0.312-0.357
		c0-0.224,0.312-0.269,0.76-0.269c1.788,0,3.665,0.09,4.111,0.09c0.447,0,1.743-0.09,3.352-0.09c0.402,0,0.715,0.045,0.715,0.269
		c0,0.134-0.179,0.357-0.447,0.357c-0.179,0-0.491,0-0.938,0.089c-1.296,0.269-1.385,1.028-1.385,3.308l-0.089,22.257
		c0,2.503-0.045,2.728-0.313,2.728c-0.402,0-0.804-0.312-2.995-2.324c-0.402-0.357-6.078-5.944-10.234-10.279
		c-4.559-4.781-8.983-9.431-10.19-10.771L40.868,150.523z"/>
	<path fill="#00467F" d="M87.261,144.668c0,3.665,0,6.659,0.179,8.225c0.135,1.117,0.313,1.832,1.521,2.012
		c0.536,0.089,1.43,0.179,1.788,0.179c0.268,0,0.312,0.18,0.312,0.312c0,0.179-0.179,0.312-0.625,0.312
		c-2.145,0-4.647-0.134-4.872-0.134c-0.179,0-2.904,0.134-4.066,0.134c-0.447,0-0.626-0.089-0.626-0.312
		c0-0.134,0.089-0.27,0.312-0.27c0.357,0,0.806-0.089,1.162-0.179c0.804-0.179,1.028-0.938,1.162-2.056
		c0.179-1.564,0.179-4.56,0.179-8.225v-15.954l-5.676,0.089c-2.458,0.045-3.396,0.312-3.978,1.207
		c-0.447,0.671-0.492,0.938-0.625,1.207c-0.089,0.312-0.225,0.356-0.402,0.356c-0.089,0-0.268-0.09-0.268-0.312
		c0-0.401,0.804-3.8,0.849-4.111c0.089-0.224,0.268-0.715,0.402-0.715c0.268,0,0.67,0.312,1.742,0.446
		c1.118,0.135,2.638,0.18,3.084,0.18h14.839c1.296,0,2.189-0.09,2.815-0.18c0.581-0.09,0.938-0.18,1.117-0.18
		s0.179,0.225,0.179,0.447c0,1.162-0.134,3.889-0.134,4.335c0,0.313-0.179,0.492-0.357,0.492c-0.18,0-0.269-0.135-0.312-0.671
		l-0.045-0.402c-0.134-1.162-0.983-2.011-4.737-2.101l-4.917-0.089L87.261,144.668L87.261,144.668z"/>
	<path fill="#00467F" d="M132.178,144.668c0,3.665,0.044,6.659,0.224,8.225c0.134,1.117,0.224,1.832,1.43,2.012
		c0.537,0.089,1.43,0.179,1.743,0.179c0.268,0,0.356,0.18,0.356,0.312c0,0.179-0.223,0.312-0.67,0.312
		c-2.145,0-4.647-0.134-4.872-0.134c-0.179,0-2.726,0.134-3.888,0.134c-0.447,0-0.625-0.089-0.625-0.312
		c0-0.134,0.089-0.312,0.312-0.312c0.358,0,0.806-0.09,1.162-0.179c0.806-0.18,0.938-0.938,1.073-2.057
		c0.179-1.563,0.179-4.425,0.179-8.089v-3.8c0-0.179-0.089-0.224-0.224-0.224h-16.402c-0.134,0-0.224,0.045-0.224,0.224v3.8
		c0,3.664,0,6.568,0.179,8.134c0.134,1.117,0.269,1.832,1.431,2.012c0.58,0.089,1.43,0.179,1.787,0.179
		c0.225,0,0.313,0.18,0.313,0.312c0,0.179-0.179,0.312-0.625,0.312c-2.19,0-4.693-0.134-4.872-0.134
		c-0.224,0-2.727,0.134-3.933,0.134c-0.402,0-0.626-0.089-0.626-0.312c0-0.134,0.089-0.312,0.312-0.312
		c0.357,0,0.85-0.09,1.207-0.179c0.76-0.18,0.85-0.895,1.028-2.012c0.223-1.564,0.223-4.56,0.223-8.225v-6.703
		c0-5.899,0-6.973-0.089-8.18c-0.089-1.296-0.312-1.922-1.609-2.101c-0.312-0.045-0.982-0.089-1.341-0.089
		c-0.134,0-0.312-0.18-0.312-0.313c0-0.223,0.179-0.312,0.626-0.312c1.788,0,4.291,0.09,4.514,0.09c0.179,0,2.681-0.09,3.888-0.09
		c0.447,0,0.625,0.09,0.625,0.312c0,0.135-0.179,0.313-0.312,0.313c-0.27,0-0.537,0-0.983,0.089
		c-1.073,0.224-1.296,0.76-1.386,2.101c-0.044,1.207-0.044,2.369-0.044,8.27v0.805c0,0.223,0.089,0.223,0.224,0.223h16.402
		c0.134,0,0.224,0,0.224-0.223v-0.805c0-5.899-0.044-7.062-0.089-8.27c-0.089-1.296-0.268-1.922-1.563-2.101
		c-0.312-0.045-0.983-0.089-1.34-0.089c-0.18,0-0.313-0.18-0.313-0.313c0-0.223,0.179-0.312,0.625-0.312
		c1.743,0,4.291,0.09,4.469,0.09c0.225,0,2.728-0.09,3.89-0.09c0.446,0,0.67,0.09,0.67,0.312c0,0.135-0.179,0.313-0.358,0.313
		c-0.268,0-0.492,0-0.982,0.089c-1.028,0.224-1.252,0.76-1.342,2.101c-0.089,1.207-0.089,2.279-0.089,8.18L132.178,144.668
		L132.178,144.668z"/>
	<path fill="#00467F" d="M147.375,137.964c0-5.899,0-6.973-0.089-8.18c-0.089-1.296-0.312-1.922-1.609-2.101
		c-0.312-0.045-0.982-0.089-1.341-0.089c-0.134,0-0.312-0.18-0.312-0.313c0-0.223,0.179-0.312,0.626-0.312
		c1.788,0,4.425,0.09,4.647,0.09c0.402,0,3.709-0.09,4.917-0.09c2.502,0,5.273,0.224,7.33,1.652
		c0.983,0.717,2.726,2.549,2.726,5.186c0,2.814-1.161,5.542-4.826,8.671c3.218,4.021,5.943,7.464,8.224,9.832
		c2.1,2.146,3.396,2.503,4.38,2.637c0.76,0.135,1.162,0.135,1.385,0.135c0.224,0,0.357,0.18,0.357,0.312
		c0,0.224-0.223,0.312-0.938,0.312h-2.459c-2.234,0-3.218-0.224-4.2-0.76c-1.698-0.894-3.128-2.726-5.363-5.586
		c-1.653-2.057-3.396-4.515-4.246-5.542c-0.179-0.179-0.268-0.224-0.537-0.224l-5.005-0.09c-0.179,0-0.268,0.09-0.268,0.312v0.895
		c0,3.665,0,6.613,0.179,8.179c0.134,1.117,0.356,1.832,1.563,2.012c0.537,0.089,1.387,0.179,1.743,0.179
		c0.269,0,0.313,0.18,0.313,0.312c0,0.179-0.18,0.312-0.626,0.312c-2.146,0-4.648-0.134-4.827-0.134
		c-0.044,0-2.682,0.134-3.888,0.134c-0.402,0-0.626-0.089-0.626-0.312c0-0.134,0.089-0.312,0.312-0.312
		c0.357,0,0.849-0.09,1.207-0.179c0.76-0.18,0.85-0.895,1.028-2.012c0.223-1.564,0.223-4.56,0.223-8.225L147.375,137.964
		L147.375,137.964z M150.771,141.182c0,0.224,0.089,0.357,0.268,0.492c0.581,0.312,2.592,0.581,4.335,0.581
		c0.938,0,2.011-0.046,2.95-0.672c1.341-0.894,2.369-2.903,2.369-5.81c0-4.737-2.593-7.464-6.793-7.464
		c-1.162,0-2.414,0.134-2.816,0.224c-0.179,0.089-0.312,0.225-0.312,0.446V141.182L150.771,141.182z"/>
	<path fill="#00467F" d="M191.398,126.434c8.849,0,15.553,5.407,15.553,14.257c0,8.492-6.302,15.509-15.776,15.509
		c-10.771,0-15.374-8.09-15.374-14.928C175.801,135.149,180.538,126.434,191.398,126.434z M192.292,154.635
		c3.531,0,10.637-1.877,10.637-12.872c0-9.117-5.542-13.899-11.754-13.899c-6.569,0-11.308,4.112-11.308,12.38
		C179.867,149.093,185.186,154.635,192.292,154.635z"/>
	<path fill="#00467F" d="M217.412,137.964c0-5.899,0-6.973-0.09-8.18c-0.089-1.296-0.312-1.922-1.608-2.101
		c-0.312-0.045-0.982-0.089-1.341-0.089c-0.135,0-0.313-0.18-0.313-0.313c0-0.223,0.18-0.312,0.626-0.312
		c1.788,0,4.246,0.09,4.56,0.09c0.85,0,3.799-0.09,5.587-0.09c5.05,0,6.838,1.563,7.508,2.146c0.896,0.805,1.967,2.503,1.967,4.56
		c0,5.451-4.11,9.071-10.146,9.071c-0.225,0-0.895,0-1.117-0.045c-0.179,0-0.402-0.179-0.402-0.356c0-0.312,0.225-0.402,1.028-0.402
		c4.246,0,7.285-2.681,7.285-6.122c0-1.252-0.135-3.71-2.235-5.766c-2.056-2.057-4.424-1.833-5.317-1.833
		c-0.67,0-1.787,0.18-2.189,0.269c-0.224,0.045-0.312,0.312-0.312,0.715v15.464c0,3.665,0,6.659,0.179,8.225
		c0.135,1.117,0.357,1.832,1.563,2.012c0.536,0.089,1.387,0.179,1.743,0.179c0.225,0,0.312,0.18,0.312,0.312
		c0,0.179-0.18,0.312-0.625,0.312c-2.146,0-4.737-0.134-4.916-0.134c-0.136,0-2.683,0.134-3.89,0.134
		c-0.401,0-0.626-0.089-0.626-0.312c0-0.134,0.091-0.312,0.313-0.312c0.357,0,0.849-0.09,1.206-0.179
		c0.76-0.18,0.85-0.895,1.028-2.012c0.224-1.564,0.224-4.56,0.224-8.225L217.412,137.964L217.412,137.964z"/>
	<path fill="#00467F" d="M245.212,137.964c0-5.899,0-6.973-0.09-8.18c-0.089-1.296-0.312-1.922-1.608-2.101
		c-0.312-0.045-0.982-0.089-1.341-0.089c-0.135,0-0.312-0.18-0.312-0.313c0-0.223,0.179-0.312,0.626-0.312
		c1.788,0,4.335,0.09,4.559,0.09c0.27,0,8.492,0.044,9.386,0c0.761-0.045,1.476-0.18,1.787-0.225
		c0.181-0.045,0.358-0.179,0.537-0.179c0.134,0,0.179,0.179,0.179,0.357c0,0.268-0.224,0.715-0.312,1.787
		c-0.044,0.357-0.134,2.057-0.223,2.503c-0.046,0.179-0.181,0.401-0.358,0.401c-0.223,0-0.312-0.179-0.312-0.49
		c0-0.27-0.045-0.896-0.224-1.342c-0.268-0.626-0.67-0.895-2.814-1.162c-0.672-0.09-5.229-0.134-5.677-0.134
		c-0.179,0-0.224,0.134-0.224,0.401v10.324c0,0.269,0,0.401,0.224,0.401c0.491,0,5.677,0,6.569-0.089
		c0.938-0.09,1.52-0.135,1.922-0.537c0.269-0.268,0.447-0.49,0.581-0.49s0.224,0.09,0.224,0.312c0,0.224-0.224,0.85-0.312,2.101
		c-0.09,0.761-0.179,2.19-0.179,2.46c0,0.312-0.091,0.715-0.358,0.715c-0.179,0-0.269-0.136-0.269-0.357c0-0.356,0-0.76-0.179-1.252
		c-0.134-0.536-0.492-0.983-2.012-1.162c-1.072-0.134-5.273-0.179-5.943-0.179c-0.224,0-0.269,0.135-0.269,0.269v3.174
		c0,1.296-0.045,5.721,0,6.479c0.089,2.548,0.805,3.039,4.691,3.039c1.028,0,2.905,0,3.935-0.402
		c1.026-0.445,1.562-1.116,1.787-2.637c0.09-0.446,0.179-0.581,0.401-0.581c0.224,0,0.27,0.313,0.27,0.581
		c0,0.27-0.313,2.86-0.536,3.665c-0.269,0.983-0.671,0.983-2.19,0.983c-2.948,0-5.229-0.091-6.838-0.135
		c-1.652-0.09-2.682-0.09-3.263-0.09c-0.089,0-0.849,0-1.698,0.045c-0.76,0.045-1.652,0.089-2.279,0.089
		c-0.401,0-0.625-0.089-0.625-0.312c0-0.134,0.09-0.312,0.312-0.312c0.357,0,0.849-0.135,1.206-0.179
		c0.76-0.135,0.85-0.895,1.028-2.012c0.224-1.564,0.224-4.56,0.224-8.224v-6.702H245.212z"/>
	<path fill="#00467F" d="M272.073,137.964c0-5.899,0-6.973-0.09-8.18c-0.09-1.296-0.312-1.922-1.608-2.101
		c-0.312-0.045-0.983-0.089-1.341-0.089c-0.135,0-0.313-0.18-0.313-0.313c0-0.223,0.18-0.312,0.626-0.312
		c1.788,0,4.335,0.09,4.56,0.09c0.447,0,2.95-0.09,5.272-0.09c3.935,0,11.129-0.357,15.777,4.335
		c1.966,1.967,3.844,5.14,3.844,9.653c0,4.782-2.057,8.446-4.246,10.683c-1.697,1.742-5.229,4.38-11.934,4.38
		c-1.698,0-3.799-0.135-5.497-0.224c-1.698-0.135-3.039-0.225-3.218-0.225c-0.089,0-0.806,0.045-1.608,0.045
		c-0.805,0.045-1.743,0.089-2.369,0.089c-0.401,0-0.626-0.089-0.626-0.312c0-0.134,0.09-0.312,0.313-0.312
		c0.356,0,0.849-0.09,1.206-0.179c0.76-0.18,0.85-0.895,1.027-2.012c0.225-1.564,0.225-4.56,0.225-8.225V137.964z M275.648,142.077
		c0,4.022,0,7.554,0.045,8.269c0.044,0.938,0.134,2.323,0.445,2.727c0.492,0.715,1.878,1.521,6.525,1.521
		c3.62,0,6.838-1.207,9.207-3.441c2.056-1.922,3.084-5.542,3.084-9.027c0-4.826-2.102-7.911-3.71-9.521
		c-3.709-3.754-8.045-4.245-12.737-4.245c-0.76,0-2.012,0.134-2.369,0.268c-0.356,0.136-0.491,0.313-0.491,0.761L275.648,142.077
		L275.648,142.077z"/>
	<path fill="#00467F" d="M313.64,144.668c0,3.665,0,6.659,0.18,8.225c0.134,1.117,0.269,1.832,1.43,2.012
		c0.581,0.089,1.431,0.179,1.788,0.179c0.224,0,0.312,0.18,0.312,0.312c0,0.179-0.179,0.312-0.625,0.312
		c-2.189,0-4.736-0.134-4.916-0.134c-0.224,0-2.682,0.134-3.889,0.134c-0.401,0-0.626-0.089-0.626-0.312
		c0-0.134,0.09-0.312,0.313-0.312c0.356,0,0.849-0.09,1.206-0.179c0.76-0.18,0.895-0.895,1.027-2.012
		c0.18-1.564,0.225-4.56,0.225-8.225v-6.703c0-5.899,0-6.973-0.091-8.18c-0.089-1.296-0.401-1.877-1.251-2.056
		c-0.446-0.09-0.938-0.134-1.207-0.134c-0.179,0-0.312-0.18-0.312-0.313c0-0.223,0.179-0.312,0.625-0.312
		c1.297,0,3.755,0.09,3.979,0.09c0.179,0,2.726-0.09,3.933-0.09c0.447,0,0.626,0.09,0.626,0.312c0,0.135-0.179,0.313-0.313,0.313
		c-0.268,0-0.536,0-0.982,0.089c-1.072,0.224-1.296,0.76-1.385,2.101c-0.046,1.207-0.046,2.279-0.046,8.18L313.64,144.668
		L313.64,144.668z"/>
	<path fill="#00467F" d="M335.673,127.73c0.492-1.251,0.671-1.475,0.938-1.475c0.401,0,0.537,0.535,0.938,1.385
		c0.716,1.608,7.019,17.297,9.432,23.062c1.43,3.396,2.503,3.889,3.352,4.156c0.581,0.179,1.162,0.224,1.564,0.224
		c0.224,0,0.491,0.09,0.491,0.312s-0.446,0.312-0.895,0.312c-0.581,0-3.485,0-6.212-0.089c-0.76-0.045-1.387-0.045-1.387-0.269
		c0-0.179,0.091-0.179,0.27-0.269c0.224-0.09,0.625-0.401,0.357-1.027l-3.531-8.715c-0.089-0.18-0.134-0.225-0.357-0.225h-9.072
		c-0.179,0-0.312,0.089-0.401,0.312l-2.234,6.078c-0.356,0.938-0.581,1.877-0.581,2.548c0,0.76,0.67,1.027,1.341,1.027h0.357
		c0.312,0,0.402,0.135,0.402,0.312c0,0.224-0.225,0.312-0.581,0.312c-0.938,0-3.084-0.134-3.531-0.134
		c-0.402,0-2.368,0.134-3.979,0.134c-0.49,0-0.76-0.089-0.76-0.312c0-0.179,0.18-0.312,0.357-0.312c0.269,0,0.85-0.045,1.162-0.09
		c1.788-0.224,2.548-1.563,3.308-3.485L335.673,127.73z M340.053,143.551c0.18,0,0.18-0.09,0.135-0.27l-3.889-10.413
		c-0.224-0.581-0.447-0.581-0.67,0l-3.665,10.413c-0.045,0.18,0,0.27,0.134,0.27H340.053z"/>
</g>
<g>
	<path fill="#929497" d="M74.291,168.352c0-2.585,0-3.055-0.04-3.583c-0.039-0.567-0.137-0.842-0.705-0.92
		c-0.137-0.021-0.431-0.039-0.587-0.039c-0.059,0-0.137-0.079-0.137-0.138c0-0.099,0.079-0.138,0.273-0.138
		c0.783,0,1.86,0.039,1.958,0.039c0.333,0,4.072,0.021,4.464,0c0.333-0.02,0.626-0.02,0.783-0.078
		c0.098-0.02,0.176-0.098,0.235-0.098c0.079,0,0.118,0.078,0.118,0.156c0,0.116-0.078,0.312-0.138,0.782
		c-0.02,0.156-0.039,0.9-0.077,1.098c-0.021,0.078-0.078,0.176-0.157,0.176c-0.078,0-0.138-0.078-0.138-0.196
		c0-0.137-0.059-0.41-0.156-0.626c-0.099-0.216-0.51-0.488-1.176-0.488l-2.818-0.039c-0.098,0-0.137,0.039-0.137,0.176v4.542
		c0,0.098,0,0.156,0.117,0.156l2.35-0.021c0.293,0,0.548,0,0.783-0.02c0.41-0.039,0.646-0.099,0.802-0.293
		c0.079-0.1,0.157-0.178,0.215-0.178c0.079,0,0.098,0.06,0.098,0.139c0,0.098-0.118,0.371-0.157,0.92
		c-0.038,0.333-0.059,0.998-0.059,1.114c0,0.157-0.039,0.333-0.157,0.333c-0.098,0-0.116-0.077-0.116-0.155
		c-0.021-0.178-0.041-0.411-0.118-0.607c-0.078-0.233-0.354-0.45-0.882-0.528c-0.431-0.059-2.467-0.038-2.76-0.038
		c-0.098,0-0.118,0.038-0.118,0.155v1.332c0,1.645,0,2.956,0.078,3.603c0.06,0.488,0.157,0.803,0.626,0.881
		c0.255,0.039,0.626,0.078,0.783,0.078c0.098,0,0.137,0.079,0.137,0.138c0,0.078-0.078,0.137-0.273,0.137
		c-0.959,0-2.075-0.059-2.154-0.059c-0.098,0-1.174,0.059-1.703,0.059c-0.176,0-0.273-0.039-0.273-0.137
		c0-0.059,0.039-0.138,0.137-0.138c0.157,0,0.372-0.06,0.529-0.078c0.333-0.06,0.372-0.393,0.449-0.881
		c0.099-0.686,0.099-1.997,0.099-3.603v-2.936H74.291z"/>
	<path fill="#929497" d="M97.465,163.3c3.876,0,6.813,2.368,6.813,6.244c0,3.721-2.762,6.795-6.911,6.795
		c-4.718,0-6.734-3.545-6.734-6.539C90.633,167.119,92.708,163.3,97.465,163.3z M97.857,175.654c1.546,0,4.658-0.822,4.658-5.638
		c0-3.994-2.428-6.089-5.148-6.089c-2.877,0-4.953,1.801-4.953,5.423C92.415,173.226,94.744,175.654,97.857,175.654z"/>
	<path fill="#929497" d="M115.352,168.352c0-2.585,0-3.055-0.039-3.583c-0.038-0.528-0.137-0.842-0.704-0.92
		c-0.138-0.021-0.432-0.039-0.587-0.039c-0.06,0-0.138-0.079-0.138-0.138c0-0.099,0.079-0.138,0.274-0.138
		c0.783,0,1.82,0.039,1.977,0.039c0.157,0,1.233-0.039,1.742-0.039c0.196,0,0.294,0.039,0.294,0.138
		c0,0.059-0.079,0.138-0.157,0.138c-0.117,0-0.215,0-0.431,0.039c-0.45,0.078-0.548,0.372-0.587,0.92
		c-0.039,0.528-0.039,0.998-0.039,3.583v2.329c0,2.408,0.529,3.405,1.271,4.071c0.843,0.765,1.586,0.9,2.564,0.9
		c1.057,0,2.075-0.47,2.663-1.175c0.803-0.959,0.979-2.329,0.979-4.032v-2.095c0-2.585-0.02-3.056-0.038-3.583
		c-0.02-0.528-0.118-0.842-0.687-0.92c-0.137-0.021-0.431-0.039-0.587-0.039c-0.079,0-0.137-0.079-0.137-0.139
		c0-0.098,0.078-0.137,0.273-0.137c0.764,0,1.762,0.039,1.86,0.039c0.118,0,0.939-0.039,1.449-0.039
		c0.195,0,0.273,0.039,0.273,0.137c0,0.06-0.059,0.139-0.137,0.139c-0.118,0-0.215,0-0.431,0.039
		c-0.471,0.098-0.568,0.372-0.607,0.92c-0.039,0.527-0.02,0.998-0.02,3.583v1.781c0,1.801-0.235,3.816-1.605,4.991
		c-1.253,1.076-2.584,1.215-3.602,1.215c-0.568,0-2.369-0.039-3.584-1.176c-0.842-0.782-1.508-1.938-1.508-4.365v-2.445H115.352z"/>
	<path fill="#929497" d="M139.113,173.853c0.039,1.37,0.195,1.781,0.666,1.897c0.312,0.078,0.705,0.099,0.86,0.099
		c0.079,0,0.138,0.06,0.138,0.138c0,0.098-0.118,0.137-0.313,0.137c-0.979,0-1.664-0.059-1.82-0.059s-0.881,0.059-1.663,0.059
		c-0.177,0-0.274-0.02-0.274-0.137c0-0.078,0.059-0.138,0.137-0.138c0.138,0,0.45-0.021,0.705-0.099
		c0.431-0.116,0.49-0.566,0.49-2.074v-9.534c0-0.665,0.098-0.842,0.235-0.842c0.195,0,0.488,0.333,0.666,0.51
		c0.273,0.272,2.779,2.937,5.441,5.677c1.703,1.762,3.543,3.739,4.072,4.288l-0.176-8.34c-0.021-1.077-0.118-1.449-0.646-1.547
		c-0.312-0.06-0.705-0.078-0.842-0.078c-0.118,0-0.137-0.1-0.137-0.157c0-0.098,0.137-0.117,0.333-0.117
		c0.782,0,1.604,0.039,1.801,0.039s0.764-0.039,1.468-0.039c0.176,0,0.312,0.021,0.312,0.117c0,0.059-0.078,0.157-0.195,0.157
		c-0.078,0-0.215,0-0.411,0.039c-0.568,0.117-0.607,0.45-0.607,1.448l-0.039,9.75c0,1.096-0.02,1.192-0.137,1.192
		c-0.176,0-0.353-0.137-1.312-1.018c-0.177-0.156-2.663-2.604-4.483-4.503c-1.997-2.096-3.935-4.131-4.463-4.719L139.113,173.853z"
		/>
	<path fill="#929497" d="M162.13,168.352c0-2.585,0-3.055-0.04-3.583c-0.039-0.567-0.137-0.842-0.705-0.92
		c-0.137-0.021-0.431-0.039-0.587-0.039c-0.059,0-0.137-0.079-0.137-0.138c0-0.099,0.079-0.138,0.273-0.138
		c0.783,0,1.899,0.039,1.997,0.039c0.196,0,1.292-0.039,2.311-0.039c1.723,0,4.875-0.156,6.911,1.899
		c0.86,0.86,1.684,2.251,1.684,4.229c0,2.096-0.901,3.7-1.86,4.68c-0.743,0.764-2.291,1.918-5.227,1.918
		c-0.744,0-1.664-0.06-2.408-0.099c-0.744-0.059-1.331-0.098-1.41-0.098c-0.039,0-0.352,0.02-0.705,0.02
		c-0.353,0.021-0.764,0.039-1.037,0.039c-0.177,0-0.274-0.039-0.274-0.137c0-0.059,0.039-0.138,0.137-0.138
		c0.157,0,0.372-0.039,0.529-0.078c0.333-0.078,0.372-0.393,0.45-0.881c0.098-0.686,0.098-1.997,0.098-3.603L162.13,168.352
		L162.13,168.352z M163.696,170.153c0,1.762,0,3.309,0.02,3.622c0.021,0.411,0.06,1.018,0.196,1.193
		c0.215,0.312,0.822,0.666,2.857,0.666c1.586,0,2.995-0.528,4.033-1.509c0.9-0.842,1.352-2.427,1.352-3.953
		c0-2.114-0.92-3.466-1.625-4.171c-1.625-1.645-3.524-1.859-5.58-1.859c-0.333,0-0.881,0.06-1.038,0.118
		c-0.157,0.058-0.215,0.137-0.215,0.333V170.153z"/>
	<path fill="#929497" d="M188.24,163.869c0.215-0.549,0.293-0.646,0.411-0.646c0.176,0,0.233,0.234,0.411,0.606
		c0.312,0.704,3.072,7.576,4.13,10.103c0.627,1.486,1.097,1.703,1.469,1.819c0.255,0.078,0.509,0.099,0.686,0.099
		c0.099,0,0.216,0.04,0.216,0.138s-0.195,0.137-0.393,0.137c-0.254,0-1.527,0-2.721-0.039c-0.333-0.02-0.607-0.02-0.607-0.116
		c0-0.078,0.039-0.078,0.117-0.118c0.099-0.039,0.274-0.176,0.157-0.45l-1.547-3.817c-0.039-0.077-0.06-0.098-0.156-0.098h-3.976
		c-0.077,0-0.137,0.039-0.176,0.137l-0.979,2.663c-0.156,0.411-0.254,0.822-0.254,1.115c0,0.333,0.294,0.45,0.587,0.45h0.157
		c0.137,0,0.176,0.06,0.176,0.138c0,0.098-0.099,0.137-0.255,0.137c-0.411,0-1.352-0.059-1.546-0.059
		c-0.178,0-1.038,0.059-1.742,0.059c-0.217,0-0.333-0.039-0.333-0.137c0-0.078,0.078-0.138,0.155-0.138
		c0.117,0,0.372-0.021,0.51-0.039c0.783-0.099,1.115-0.686,1.449-1.526L188.24,163.869z M190.158,170.798
		c0.078,0,0.078-0.039,0.059-0.117l-1.703-4.562c-0.098-0.254-0.194-0.254-0.293,0l-1.604,4.562c-0.021,0.078,0,0.117,0.059,0.117
		H190.158z"/>
	<path fill="#929497" d="M208.164,171.289c0,1.604,0,2.917,0.078,3.603c0.06,0.489,0.138,0.803,0.666,0.881
		c0.234,0.039,0.627,0.078,0.783,0.078c0.116,0,0.137,0.079,0.137,0.138c0,0.078-0.078,0.137-0.273,0.137
		c-0.939,0-2.035-0.059-2.135-0.059c-0.078,0-1.271,0.059-1.781,0.059c-0.194,0-0.272-0.039-0.272-0.137
		c0-0.059,0.039-0.117,0.137-0.117c0.156,0,0.354-0.04,0.509-0.079c0.354-0.077,0.45-0.41,0.51-0.899
		c0.078-0.686,0.078-1.997,0.078-3.603v-6.988l-2.485,0.039c-1.077,0.02-1.488,0.137-1.743,0.527
		c-0.195,0.294-0.215,0.411-0.273,0.528c-0.039,0.138-0.098,0.157-0.177,0.157c-0.039,0-0.117-0.039-0.117-0.139
		c0-0.176,0.354-1.662,0.372-1.801c0.039-0.098,0.117-0.312,0.176-0.312c0.118,0,0.295,0.138,0.765,0.195
		c0.489,0.06,1.155,0.078,1.351,0.078h6.5c0.567,0,0.959-0.039,1.233-0.078c0.255-0.039,0.411-0.077,0.489-0.077
		c0.077,0,0.077,0.098,0.077,0.194c0,0.509-0.059,1.703-0.059,1.899c0,0.137-0.078,0.215-0.156,0.215s-0.118-0.059-0.138-0.293
		l-0.021-0.177c-0.059-0.51-0.431-0.881-2.074-0.92l-2.153-0.039v6.989H208.164z"/>
	<path fill="#929497" d="M225.739,171.289c0,1.604,0,2.917,0.078,3.603c0.059,0.489,0.116,0.803,0.627,0.881
		c0.254,0.039,0.626,0.078,0.782,0.078c0.099,0,0.138,0.079,0.138,0.138c0,0.078-0.078,0.137-0.274,0.137
		c-0.959,0-2.075-0.059-2.152-0.059c-0.099,0-1.176,0.059-1.703,0.059c-0.177,0-0.274-0.039-0.274-0.137
		c0-0.059,0.039-0.138,0.138-0.138c0.156,0,0.372-0.039,0.528-0.078c0.333-0.078,0.393-0.392,0.45-0.881
		c0.078-0.686,0.098-1.997,0.098-3.603v-2.937c0-2.585,0-3.055-0.039-3.583c-0.039-0.567-0.176-0.822-0.548-0.9
		c-0.195-0.039-0.411-0.059-0.527-0.059c-0.079,0-0.139-0.079-0.139-0.138c0-0.099,0.078-0.138,0.274-0.138
		c0.566,0,1.645,0.039,1.742,0.039c0.078,0,1.193-0.039,1.723-0.039c0.196,0,0.274,0.039,0.274,0.138
		c0,0.059-0.078,0.138-0.138,0.138c-0.118,0-0.234,0-0.431,0.039c-0.471,0.098-0.568,0.333-0.607,0.92
		c-0.02,0.528-0.02,0.998-0.02,3.583V171.289L225.739,171.289z"/>
	<path fill="#929497" d="M244.216,163.3c3.876,0,6.812,2.368,6.812,6.244c0,3.721-2.761,6.795-6.91,6.795
		c-4.719,0-6.734-3.545-6.734-6.539C237.384,167.119,239.459,163.3,244.216,163.3z M244.607,175.654
		c1.547,0,4.658-0.822,4.658-5.638c0-3.994-2.428-6.089-5.147-6.089c-2.878,0-4.953,1.801-4.953,5.423
		C239.165,173.226,241.494,175.654,244.607,175.654z"/>
	<path fill="#929497" d="M263.18,173.853c0.039,1.37,0.195,1.781,0.666,1.897c0.312,0.078,0.704,0.099,0.861,0.099
		c0.078,0,0.137,0.06,0.137,0.138c0,0.098-0.117,0.137-0.312,0.137c-0.979,0-1.664-0.059-1.82-0.059
		c-0.157,0-0.881,0.059-1.664,0.059c-0.177,0-0.273-0.02-0.273-0.137c0-0.078,0.059-0.138,0.138-0.138
		c0.137,0,0.45-0.021,0.704-0.099c0.431-0.116,0.489-0.566,0.489-2.074v-9.534c0-0.665,0.099-0.842,0.234-0.842
		c0.195,0,0.489,0.333,0.666,0.51c0.273,0.272,2.779,2.937,5.442,5.677c1.703,1.762,3.543,3.739,4.07,4.288l-0.176-8.34
		c-0.02-1.077-0.117-1.449-0.646-1.547c-0.312-0.06-0.704-0.078-0.842-0.078c-0.117,0-0.138-0.1-0.138-0.157
		c0-0.098,0.138-0.117,0.333-0.117c0.783,0,1.605,0.039,1.802,0.039c0.195,0,0.764-0.039,1.469-0.039
		c0.176,0,0.312,0.021,0.312,0.117c0,0.059-0.078,0.157-0.194,0.157c-0.078,0-0.217,0-0.411,0.039
		c-0.567,0.117-0.606,0.45-0.606,1.448l-0.04,9.75c0,1.096-0.02,1.192-0.137,1.192c-0.176,0-0.354-0.137-1.312-1.018
		c-0.176-0.156-2.661-2.604-4.482-4.503c-1.997-2.096-3.936-4.131-4.463-4.719L263.18,173.853z"/>
</g>
<g>
	<path fill="#00467F" d="M47.663,117.21C55.457,52.149,110.48,1.36,177.645,1.36c67.141,0,122.86,50.756,130.687,115.785
		L47.663,117.21z"/>
</g>
<g>
	<rect x="14.21" y="121.325" fill="#00467F" width="323.611" height="1.402"/>
</g>
<path fill="#FFFFFF" d="M106.929,71.997c-2.625-1.938-6.521-3.073-11.318-2.719c-4.801,0.354-12.76,3.607-18.952,12.529
	c-4.672,6.742-6.273,12.062-7.258,17.38c-1.374,7.427-1.231,11.826-1.231,11.826s2.214-2.486,6.521-3.668
	c8.076-2.218,13.411-4.021,18.701-7.566c5.292-3.543,10.709-5.554,13.29-13.951C109.266,77.431,108.529,73.177,106.929,71.997z"/>
<path fill="#FFFFFF" d="M172.512,61.83c-0.858-11.942,8.858-19.864,8.858-19.864s6.276-6.618,25.963-10.048
	c19.688-3.431,24.237-0.473,24.237-0.473s-6.396,3.31-14.763,12.77c-8.368,9.457-7.631,24.471-21.046,29.319
	C180.429,79.075,173.372,73.77,172.512,61.83z"/>
<path fill="#FFFFFF" d="M193.312,118.025c-1.78-7.834-9.827-30.127-15.179-35.899c-4.922-5.31-11.27-15.707-35.271-17.633
	c-23.997-1.922-37.451,8.018-37.451,8.018v3.206c0,0,12.346-9.938,34.366-8.015c22.021,1.923,27.356,12.824,32.359,17.632
	c5.008,4.809,11.903,25.134,3.562,32.646L193.312,118.025z"/>
<path fill="#FFFFFF" d="M251.879,71.272c0,0-69.557-18.598-71.396,39.43l12.445,6.516c-16.985-66.644,58.951-43.379,58.951-43.379
	V71.272z"/>
<path fill="#FFFFFF" d="M228.197,64.931c-7.788-4.352-4.438-14.346-4.438-14.346s1.214-8.114,19.356-12.926
	c18.143-4.808,20.461-7.141,20.461-7.141s-4.569,19.272-10.779,27.746C246.592,66.735,235.985,69.278,228.197,64.931z"/>
<path fill="#FFFFFF" d="M165.667,57.385c-8.681,8.671-21.606,1.017-21.606,1.017s-10.998-4.26-11.755-29.369
	c-0.76-25.108-3.268-28.882-3.268-28.882s25.551,12.289,35.397,23.139C174.278,34.136,174.347,48.723,165.667,57.385z"/>
<path fill="#FFFFFF" d="M214.579,77.819c0,0-2.477,3.238-1.097,8.982c1.715,7.53,9.618,10.506,17.596,13.277
	c7.973,2.775,24.812,6.937,24.812,6.937s-1.099-7.067-4.052-14.796c-2.958-7.73-11-14.268-11-14.268s-6.91-6.075-15.191-5.353
	C218.839,73.195,214.579,77.819,214.579,77.819z"/>
<path fill="#FFFFFF" d="M250.146,73.464c0,0-2.938-2.01,7.172-5.624c10.109-3.611,16.656-0.322,21.634,2.724
	c4.969,3.044,7.982,5.828,12.685,11.84c4.699,6.013,6.096,10.242,6.096,10.242s-4.934,2.012-19.485,2.206
	c-14.553,0.192-20.741-6.891-23.841-12.198C251.308,77.34,250.146,73.464,250.146,73.464z"/>
<path fill="#FFFFFF" d="M153.821,74.945c0,0,0.058,13.072-12.03,22.589c-7.216,5.685-11.277,7.135-19.525,8.126
	c-8.248,0.992-13.404,4.095-13.404,4.095s-2.613-4.095,0.552-16.25c3.161-12.149,12.44-16.709,23.235-18.692
	C143.442,72.829,153.821,74.945,153.821,74.945z"/>
<path fill="#FFFFFF" d="M74.942,30.801c0,0,17.199-2.499,26.891-1.189c6.996,0.948,15.081,5.734,17.301,9.026
	c2.22,3.293,5.094,13.183,2.456,17.193c-2.635,4.015-14.843,8.175-23.571,4.203c-8.736-3.512-14.411-11.594-17.166-17.167
	C78.521,37.34,74.942,30.801,74.942,30.801z"/>
<path fill="#FFFFFF" d="M158.711,61.573c0.861,0.694,2.038,5.87,1.862,6.706c-0.525,2.544,6.594,5.077,4.562,2.03
	c-0.97-1.457-3.923-9.377-3.002-10.579C163.05,58.529,157.85,60.877,158.711,61.573z"/>
<path fill="#FFFFFF" d="M199.246,76.139c0,0,7.682-1.849,11.459,0.138c2.066,1.086,3.904,3.547,3.904,4.245
	c0,1.368,1.216-2.805,1.216-2.805s-1.61-2.291-3.501-3.469c-1.891-1.174-4.058-1.229-5.17-1.229
	C204.927,73.019,199.246,76.139,199.246,76.139z"/>
<path fill="#FFFFFF" d="M125.267,61.84c2.606,1.676,5.005,2.884,5.005,2.884l7.34,0.104c0,0-9.525-4.394-12.124-6.088
	c-2.599-1.697-3.669-2.781-4.781-4.171l-2.113,2.594C118.593,57.165,122.661,60.165,125.267,61.84z"/>
<path fill="#FFFFFF" d="M229.623,61.264c0,0-1.74,4.812-6.688,6.723c-4.939,1.909,2.567,1.563,2.567,1.563l6.57-6.273
	L229.623,61.264z"/>
<path fill="#FFFFFF" d="M150.696,75.683l7.922-3.919c0,0,11.869,3.618,5.04,2.305c-7.202-1.386-11.523,3.462-11.523,3.462
	L150.696,75.683z"/>
<path fill="#FFFFFF" d="M177.581,70.148c0,0-5.28,3.46-5.04,9.458c0.241,5.997,2.398,2.537,2.398,2.537s-0.959-3,1.2-6.46
	c2.16-3.458,3.362-2.537,3.362-2.537L177.581,70.148z"/>
<g>
	<g>
		<path fill="#00467F" d="M83.999,31.766C58.608,55.349,43.135,87.292,40.43,121.714l1.397,0.108
			c2.677-34.068,17.992-65.688,43.125-89.03C110.22,9.326,143.138-3.598,177.644-3.598c34.507,0,67.425,12.924,92.689,36.391
			c25.132,23.344,40.446,54.963,43.122,89.033l1.396-0.108c-2.702-34.424-18.175-66.368-43.563-89.95
			C245.761,8.058,212.504-5,177.643-5C142.784-4.999,109.526,8.058,83.999,31.766z"/>
	</g>
</g>
<text transform="matrix(1 0 0 1 318.0742 117.8931)" fill="#00467F" font-family="'ArialMT'" font-size="8.0812">TM</text>
</svg>
